# xmcd CD database file
#
# Track frame offsets:
#	150
#	16008
#	26855
#	38134
#	53811
#	71088
#	85700
#	106976
#	120123
#	133682
#
# Disc length: 1874 seconds
#
# Revision: 0
# Processed by: cddbd v1.5.1PL2 Copyright (c) Steve Scherf et al.
# Submitted via: CDex 1.51
#
DISCID=7707500a
DTITLE=Sandy Thomson - Tears And Coffee
DYEAR=2005
DGENRE=Country
TTITLE0=Tears In My Coffee (With Peter Sheahan)
TTITLE1=Our Love Song
TTITLE2=Summer Love
TTITLE3=This Man's Heart
TTITLE4=I Will Follow You
TTITLE5=My Heart Has A Mind Of It's Own (With Peter Sheahan)
TTITLE6=Too Many Memories
TTITLE7=Come To Church
TTITLE8=I Want You To Need You
TTITLE9=Who's Right Who's Wrong
EXTD=YEAR: 2005
EXTT0=
EXTT1=
EXTT2=
EXTT3=
EXTT4=
EXTT5=
EXTT6=
EXTT7=
EXTT8=
EXTT9=
PLAYORDER=
